{"title":"Shank.2010.DVDRip.XviD spd RG","uid":5713517,"size":736372783,"categoryP":"video","categoryS":"movies","magnet":"?xt=urn:btih:46bc8eb02ef60be8f2cb028869d5127b26a50499&amp;dn=Shank.2010.DVDRip.XviD+spd+RG&amp;tr=udp%3A%2F%2Ftracker.openbittorrent.com%3A80&amp;tr=udp%3A%2F%2Fopen.demonii.com%3A1337&amp;tr=udp%3A%2F%2Ftracker.coppersurfer.tk%3A6969&amp;tr=udp%3A%2F%2Fexodus.desync.com%3A6969","seeders":0,"leechers":1,"uploader":"hiest","files":2,"time":1279992913,"description":"An action film for the youth generation, set in a decaying future London. \nA gang set out on a chase to avenge the murder of one of their own.\n\n\n \nimdb\n\n\n \nVideo\nID : 0\nFormat : MPEG-4 Visual\nFormat profile : Advanced Simple@L5\nFormat settings, BVOP : Yes\nFormat settings, QPel : No\nFormat settings, GMC : No warppoints\nFormat settings, Matrix : Custom\nCodec ID : XVID\nCodec ID/Hint : XviD\nDuration : 1h 21mn\nBit rate : 1 082 Kbps\nWidth : 720 pixels\nHeight : 304 pixels\nDisplay aspect ratio : 2.35:1\nFrame rate : 25.000 fps\nResolution : 8 bits\nColorimetry : 4:2:0\nScan type : Progressive\nBits/(Pixel*Frame) : 0.198\nStream size : 630 MiB (88%)\nWriting library : XviD 1.2.1 (UTC 2008-12-04)\n\nAudio\nID : 1\nFormat : MPEG Audio\nCodec ID : 55\nCodec ID/Hint : MP3\nDuration : 1h 21mn\nBit rate : 112 Kbps\nChannel(s) : 2 channels\nSampling rate : 48.0 KHz\nStream size : 75.9 MiB (11%)\nAlignment : Split accross interleaves\nInterleave, duration : 24 ms (0.60 video frame)\nInterleave, preload duration : 1725 ms\nLanguage : English\n\n\n\n\nScreenshots\n &lt;a href=&quot;\nhttp://postimg.com/image/19000/18350.jpg&quot; rel=&quot;nofollow&quot; target=&quot;_NEW&quot;&gt;\nhttp://postimg.com/image/19000/18350.jpg&lt;/a&gt;","torrent":{"xt":"urn:btih:46bc8eb02ef60be8f2cb028869d5127b26a50499","amp;dn":"Shank.2010.DVDRip.XviD+spd+RG","amp;tr":["udp%3A%2F%2Ftracker.openbittorrent.com%3A80","udp%3A%2F%2Fopen.demonii.com%3A1337","udp%3A%2F%2Ftracker.coppersurfer.tk%3A6969","udp%3A%2F%2Fexodus.desync.com%3A6969"],"infoHash":"46bc8eb02ef60be8f2cb028869d5127b26a50499","infoHashBuffer":{"type":"Buffer","data":[70,188,142,176,46,246,11,232,242,203,2,136,105,213,18,123,38,165,4,153]},"announce":[],"urlList":[]}}